<svg xmlns="http://www.w3.org/2000/svg" version="1.1" xmlns:xlink="http://www.w3.org/1999/xlink" xmlns:svgjs="http://svgjs.com/svgjs" viewBox="0 0 24 24" height="24" width="24"><title>real estate favorite hands heart (From Streamline App : https://app.streamlineicons.com)</title><g transform="matrix(1,0,0,1,0,0)"><path d="M 3.75,23l-2.014-2.517c-0.638-0.798-0.986-1.79-0.986-2.812V12.5c0-0.828,0.672-1.5,1.5-1.5l0,0 c0.828,0,1.5,0.672,1.5,1.5v3.75 " stroke="#000000" fill="none" stroke-width="1.5" stroke-linecap="round" stroke-linejoin="round"></path><path d="M 8.25,22.864v-3c0.001-0.89-0.263-1.76-0.757-2.5l-1.142-1.71 c-0.398-0.663-1.258-0.878-1.921-0.481c-0.019,0.011-0.038,0.023-0.056,0.036l0,0C3.787,15.601,3.584,16.369,3.9,17l1.35,2.25 " stroke="#000000" fill="none" stroke-width="1.5" stroke-linecap="round" stroke-linejoin="round"></path><path d="M 20.25,23l2.014-2.517c0.638-0.798,0.986-1.79,0.986-2.812V12.5c0-0.828-0.672-1.5-1.5-1.5l0,0c-0.828,0-1.5,0.672-1.5,1.5v3.75 " stroke="#000000" fill="none" stroke-width="1.5" stroke-linecap="round" stroke-linejoin="round"></path><path d="M 15.75,22.864v-3c-0.001-0.89,0.263-1.76,0.757-2.5l1.142-1.712c0.398-0.663,1.258-0.878,1.921-0.481 c0.019,0.011,0.038,0.023,0.056,0.036l0,0c0.588,0.392,0.791,1.161,0.474,1.793l-1.35,2.25 " stroke="#000000" fill="none" stroke-width="1.5" stroke-linecap="round" stroke-linejoin="round"></path><path d="M 4.023,7.25l7.008-5.93 c0.559-0.473,1.379-0.473,1.938,0l7.011,5.932 " stroke="#000000" fill="none" stroke-width="1.5" stroke-linecap="round" stroke-linejoin="round"></path><path d="M 15.93,8.589c-0.724-0.76-1.927-0.789-2.686-0.065 c-0.022,0.021-0.044,0.043-0.065,0.065L12,9.808l-1.179-1.219C10.097,7.829,8.894,7.8,8.135,8.524 C8.113,8.545,8.091,8.567,8.07,8.589c-0.76,0.796-0.76,2.049,0,2.845l3.511,3.631c0.221,0.231,0.587,0.24,0.819,0.019 c0.007-0.006,0.013-0.013,0.019-0.019l3.511-3.631C16.665,10.643,16.644,9.399,15.93,8.589z" stroke="#000000" fill="none" stroke-width="1.5" stroke-linecap="round" stroke-linejoin="round"></path></g></svg>