<svg xmlns="http://www.w3.org/2000/svg" version="1.1" xmlns:xlink="http://www.w3.org/1999/xlink" xmlns:svgjs="http://svgjs.com/svgjs" viewBox="0 0 24 24" height="24" width="24"><title>family hold (From Streamline App : https://app.streamlineicons.com)</title><g transform="matrix(1,0,0,1,0,0)"><path d="M 0.759,14.25v9 " stroke="#000000" fill="none" stroke-width="1.5" stroke-linecap="round" stroke-linejoin="round"></path><path d="M 0.759,21.75h15c0-1.657-1.343-3-3-3h-3.75c0-1.657-1.343-3-3-3h-5.25 " stroke="#000000" fill="none" stroke-width="1.5" stroke-linecap="round" stroke-linejoin="round"></path><path d="M 6.009,18.75h3 " stroke="#000000" fill="none" stroke-width="1.5" stroke-linecap="round" stroke-linejoin="round"></path><path d="M 19.509,0.75c1.657,0,3,1.343,3,3s-1.343,3-3,3s-3-1.343-3-3S17.852,0.75,19.509,0.75z " stroke="#000000" fill="none" stroke-width="1.5" stroke-linecap="round" stroke-linejoin="round"></path><path d="M 23.259,12c0-2.071-1.679-3.75-3.75-3.75 c-0.811,0-1.601,0.263-2.25,0.75 " stroke="#000000" fill="none" stroke-width="1.5" stroke-linecap="round" stroke-linejoin="round"></path><path d="M 6.009,0.75c1.657,0,3,1.343,3,3s-1.343,3-3,3s-3-1.343-3-3S4.352,0.75,6.009,0.75z " stroke="#000000" fill="none" stroke-width="1.5" stroke-linecap="round" stroke-linejoin="round"></path><path d="M 2.259,12 C2.26,9.928,3.94,8.25,6.012,8.251c0.81,0,1.599,0.263,2.247,0.749 " stroke="#000000" fill="none" stroke-width="1.5" stroke-linecap="round" stroke-linejoin="round"></path><path d="M 12.759,5.25c1.243,0,2.25,1.007,2.25,2.25 s-1.007,2.25-2.25,2.25s-2.25-1.007-2.25-2.25S11.516,5.25,12.759,5.25z " stroke="#000000" fill="none" stroke-width="1.5" stroke-linecap="round" stroke-linejoin="round"></path><path d="M 12.759,11.25c-1.491,0-2.841,0.883-3.437,2.25 " stroke="#000000" fill="none" stroke-width="1.5" stroke-linecap="round" stroke-linejoin="round"></path><path d="M 12.759,11.25c2.071,0,3.75,1.679,3.75,3.75l0,0" stroke="#000000" fill="none" stroke-width="1.5" stroke-linecap="round" stroke-linejoin="round"></path></g></svg>