<svg xmlns="http://www.w3.org/2000/svg" version="1.1" xmlns:xlink="http://www.w3.org/1999/xlink" xmlns:svgjs="http://svgjs.com/svgjs" viewBox="0 0 24 24" height="24" width="24"><title>family home 1 (From Streamline App : https://app.streamlineicons.com)</title><g transform="matrix(1,0,0,1,0,0)"><path d="M 23.259,9l-11.25-8.25L0.759,9 " stroke="#000000" fill="none" stroke-width="1.5" stroke-linecap="round" stroke-linejoin="round"></path><path d="M 6.009,9.75c1.657,0,3,1.343,3,3s-1.343,3-3,3s-3-1.343-3-3 S4.352,9.75,6.009,9.75z " stroke="#000000" fill="none" stroke-width="1.5" stroke-linecap="round" stroke-linejoin="round"></path><path d="M 7.509,17.506c-2.343-0.828-4.914,0.399-5.743,2.743c-0.17,0.482-0.258,0.99-0.257,1.501 " stroke="#000000" fill="none" stroke-width="1.5" stroke-linecap="round" stroke-linejoin="round"></path><path d="M 22.509,21.75 c0.001-2.485-2.013-4.501-4.499-4.501c-0.511,0-1.019,0.087-1.501,0.257 " stroke="#000000" fill="none" stroke-width="1.5" stroke-linecap="round" stroke-linejoin="round"></path><path d="M 18.009,9.75c1.657,0,3,1.343,3,3s-1.343,3-3,3 s-3-1.343-3-3S16.352,9.75,18.009,9.75z " stroke="#000000" fill="none" stroke-width="1.5" stroke-linecap="round" stroke-linejoin="round"></path><path d="M 21.009,12.75c0,0,0,3.75,2.25,3.75 " stroke="#000000" fill="none" stroke-width="1.5" stroke-linecap="round" stroke-linejoin="round"></path><path d="M 12.009,15.75c1.243,0,2.25,1.007,2.25,2.25 s-1.007,2.25-2.25,2.25s-2.25-1.007-2.25-2.25S10.766,15.75,12.009,15.75z " stroke="#000000" fill="none" stroke-width="1.5" stroke-linecap="round" stroke-linejoin="round"></path><path d="M 15.906,23.25c-1.243-2.152-3.996-2.889-6.148-1.645 c-0.683,0.395-1.251,0.962-1.645,1.645" stroke="#000000" fill="none" stroke-width="1.5" stroke-linecap="round" stroke-linejoin="round"></path></g></svg>